{"title":"Jack Reacher (2012) 1080p","uid":13675007,"size":3827102158,"categoryP":"video","categoryS":"hd___movies","magnet":"?xt=urn:btih:7b4f5945fff878ad67168434e070405e38794b24&amp;dn=Jack+Reacher+%282012%29+1080p+&amp;tr=udp%3A%2F%2Ftracker.leechers-paradise.org%3A6969&amp;tr=udp%3A%2F%2Fzer0day.ch%3A1337&amp;tr=udp%3A%2F%2Fopen.demonii.com%3A1337&amp;tr=udp%3A%2F%2Ftracker.coppersurfer.tk%3A6969&amp;tr=udp%3A%2F%2Fexodus.desync.com%3A6969","seeders":1,"leechers":0,"uploader":"AlienMethod","files":6,"time":1456387653,"description":"x264/mp4\r\n6-Channel AC3 @448kbps\r\n2-Channel AAC @192kbps\r\nEnglish Subs\r\n\r\n&quot;A homicide investigator digs deeper into a case involving a trained\r\nmilitary sniper who shot five random victims.&quot;\r\n\r\n\r\n\r\nVideo\r\nID : 1\r\nFormat : AVC\r\nFormat/Info : Advanced Video Codec\r\nFormat profile :   \r\nFormat settings, CABAC : Yes\r\nFormat settings, ReFrames : 5 frames\r\nCodec ID : avc1\r\nCodec ID/Info : Advanced Video Coding\r\nDuration : 2h 10mn\r\nBit rate : 3 250 Kbps\r\nMaximum bit rate : 15.3 Mbps\r\nWidth : 1 920 pixels\r\nHeight : 816 pixels\r\nDisplay aspect ratio : 2.35:1\r\nFrame rate mode : Constant\r\nFrame rate : 23.976 fps\r\nColor space : YUV\r\nChroma subsampling : 4:2:0\r\nBit depth : 8 bits\r\nScan type : Progressive\r\nBits/(Pixel*Frame) : 0.087\r\nStream size : 2.96 GiB (83%)\r\nTitle : Jack Reacher 2012 1080p.h264\r\nWriting library : x264 core 130 r2273 b3065e6\r\n\r\nEncoded date : UTC 2016-02-23 15:47:22\r\nTagged date : UTC 2016-02-23 15:47:41\r\n\r\nAudio #1\r\nID : 2\r\nFormat : AC-3\r\nFormat/Info : Audio Coding 3\r\nMode extension : CM (complete main)\r\nFormat settings, Endianness : Big\r\nCodec ID : ac-3\r\nDuration : 2h 10mn\r\nBit rate mode : Constant\r\nBit rate : 448 Kbps\r\nChannel(s) : 6 channels\r\nChannel positions : Front: L C R, Side: L R, LFE\r\nSampling rate : 48.0 KHz\r\nBit depth : 16 bits\r\nCompression mode : Lossy\r\nStream size : 418 MiB (11%)\r\nTitle : Jack Reacher 2012 1080p.ac3\r\nEncoded date : UTC 2016-02-23 15:47:36\r\nTagged date : UTC 2016-02-23 15:47:41\r\n\r\nAudio #2\r\nID : 3\r\nFormat : AAC\r\nFormat/Info : Advanced Audio Codec\r\nFormat profile : LC\r\nCodec ID : 40\r\nDuration : 2h 10mn\r\nBit rate mode : Variable\r\nBit rate : 213 Kbps\r\nMaximum bit rate : 254 Kbps\r\nChannel(s) : 2 channels\r\nChannel positions : Front: L R\r\nSampling rate : 48.0 KHz\r\nCompression mode : Lossy\r\nStream size : 198 MiB (5%)\r\nTitle : Jack Reacher 2012 1080p.m4a\r\nEncoded date : UTC 2016-02-23 15:47:39\r\nTagged date : UTC 2016-02-23 15:47:41","torrent":{"xt":"urn:btih:7b4f5945fff878ad67168434e070405e38794b24","amp;dn":"Jack+Reacher+%282012%29+1080p+","amp;tr":["udp%3A%2F%2Ftracker.leechers-paradise.org%3A6969","udp%3A%2F%2Fzer0day.ch%3A1337","udp%3A%2F%2Fopen.demonii.com%3A1337","udp%3A%2F%2Ftracker.coppersurfer.tk%3A6969","udp%3A%2F%2Fexodus.desync.com%3A6969"],"infoHash":"7b4f5945fff878ad67168434e070405e38794b24","infoHashBuffer":{"type":"Buffer","data":[123,79,89,69,255,248,120,173,103,22,132,52,224,112,64,94,56,121,75,36]},"announce":[],"urlList":[]}}